<mxfile host="app.diagrams.net" modified="2021-10-25T08:47:19.821Z" agent="5.0 (Macintosh; Intel Mac OS X 10_15_7) AppleWebKit/537.36 (KHTML, like Gecko) Chrome/94.0.4606.61 Safari/537.36" etag="i0tq-5k0E0DxhmInfCey" version="15.5.8" type="github">
  <diagram id="lBIT56-xo1PJACkflO1Y" name="第 1 页">
    <mxGraphModel dx="2222" dy="593" grid="1" gridSize="10" guides="1" tooltips="1" connect="1" arrows="1" fold="1" page="1" pageScale="1" pageWidth="827" pageHeight="1169" math="0" shadow="0">
      <root>
        <mxCell id="0" />
        <mxCell id="1" parent="0" />
        <mxCell id="DrNX_Tf_RnusZ_OTeK2H-32" value="" style="ellipse;shape=cloud;whiteSpace=wrap;html=1;" vertex="1" parent="1">
          <mxGeometry x="14" y="720" width="1265" height="265" as="geometry" />
        </mxCell>
        <mxCell id="DrNX_Tf_RnusZ_OTeK2H-1" value="" style="ellipse;shape=cloud;whiteSpace=wrap;html=1;" vertex="1" parent="1">
          <mxGeometry x="20" y="430" width="1265" height="265" as="geometry" />
        </mxCell>
        <mxCell id="DrNX_Tf_RnusZ_OTeK2H-2" value="&lt;span style=&quot;font-size: 18px&quot;&gt;请求转发-现状&lt;/span&gt;" style="text;html=1;strokeColor=none;fillColor=none;align=center;verticalAlign=middle;whiteSpace=wrap;rounded=0;" vertex="1" parent="1">
          <mxGeometry x="381" y="400" width="130" height="20" as="geometry" />
        </mxCell>
        <mxCell id="DrNX_Tf_RnusZ_OTeK2H-3" value="1.中国用户使用美国包访问" style="text;html=1;strokeColor=none;fillColor=none;align=center;verticalAlign=middle;whiteSpace=wrap;rounded=0;" vertex="1" parent="1">
          <mxGeometry x="-20" y="470" width="170" height="30" as="geometry" />
        </mxCell>
        <mxCell id="DrNX_Tf_RnusZ_OTeK2H-4" value="2.美国用户使用中国包访问" style="text;html=1;strokeColor=none;fillColor=none;align=center;verticalAlign=middle;whiteSpace=wrap;rounded=0;" vertex="1" parent="1">
          <mxGeometry x="-20" y="770" width="170" height="30" as="geometry" />
        </mxCell>
        <mxCell id="DrNX_Tf_RnusZ_OTeK2H-5" style="edgeStyle=orthogonalEdgeStyle;rounded=0;orthogonalLoop=1;jettySize=auto;html=1;exitX=0.5;exitY=0.5;exitDx=0;exitDy=0;exitPerimeter=0;entryX=0;entryY=0.5;entryDx=0;entryDy=0;" edge="1" parent="1" source="DrNX_Tf_RnusZ_OTeK2H-6" target="DrNX_Tf_RnusZ_OTeK2H-8">
          <mxGeometry relative="1" as="geometry">
            <mxPoint x="235" y="550" as="targetPoint" />
          </mxGeometry>
        </mxCell>
        <mxCell id="DrNX_Tf_RnusZ_OTeK2H-6" value="CN User" style="shape=umlActor;verticalLabelPosition=bottom;verticalAlign=top;html=1;outlineConnect=0;" vertex="1" parent="1">
          <mxGeometry x="-10" y="520" width="30" height="60" as="geometry" />
        </mxCell>
        <mxCell id="DrNX_Tf_RnusZ_OTeK2H-7" value="" style="edgeStyle=orthogonalEdgeStyle;rounded=0;orthogonalLoop=1;jettySize=auto;html=1;" edge="1" parent="1" target="DrNX_Tf_RnusZ_OTeK2H-10">
          <mxGeometry relative="1" as="geometry">
            <mxPoint x="355" y="550" as="sourcePoint" />
          </mxGeometry>
        </mxCell>
        <mxCell id="DrNX_Tf_RnusZ_OTeK2H-8" value="NGINX" style="rounded=1;whiteSpace=wrap;html=1;" vertex="1" parent="1">
          <mxGeometry x="265" y="520" width="120" height="60" as="geometry" />
        </mxCell>
        <mxCell id="DrNX_Tf_RnusZ_OTeK2H-9" value="" style="edgeStyle=orthogonalEdgeStyle;rounded=0;orthogonalLoop=1;jettySize=auto;html=1;" edge="1" parent="1" source="DrNX_Tf_RnusZ_OTeK2H-10" target="DrNX_Tf_RnusZ_OTeK2H-11">
          <mxGeometry relative="1" as="geometry" />
        </mxCell>
        <mxCell id="DrNX_Tf_RnusZ_OTeK2H-10" value="GateWay" style="whiteSpace=wrap;html=1;rounded=1;" vertex="1" parent="1">
          <mxGeometry x="435" y="520" width="120" height="60" as="geometry" />
        </mxCell>
        <mxCell id="DrNX_Tf_RnusZ_OTeK2H-11" value="App" style="whiteSpace=wrap;html=1;rounded=1;" vertex="1" parent="1">
          <mxGeometry x="665" y="520" width="120" height="60" as="geometry" />
        </mxCell>
        <mxCell id="DrNX_Tf_RnusZ_OTeK2H-12" value="&lt;span&gt;App&lt;/span&gt;" style="rounded=1;whiteSpace=wrap;html=1;" vertex="1" parent="1">
          <mxGeometry x="665" y="830" width="120" height="60" as="geometry" />
        </mxCell>
        <mxCell id="DrNX_Tf_RnusZ_OTeK2H-13" value="&lt;font style=&quot;font-size: 14px&quot;&gt;Global&lt;/font&gt;&amp;nbsp;" style="text;html=1;strokeColor=none;fillColor=none;align=center;verticalAlign=middle;whiteSpace=wrap;rounded=0;" vertex="1" parent="1">
          <mxGeometry x="530" y="620" width="146" height="30" as="geometry" />
        </mxCell>
        <mxCell id="DrNX_Tf_RnusZ_OTeK2H-14" value="" style="edgeStyle=orthogonalEdgeStyle;rounded=0;orthogonalLoop=1;jettySize=auto;html=1;" edge="1" parent="1" source="DrNX_Tf_RnusZ_OTeK2H-15" target="DrNX_Tf_RnusZ_OTeK2H-12">
          <mxGeometry relative="1" as="geometry" />
        </mxCell>
        <mxCell id="DrNX_Tf_RnusZ_OTeK2H-15" value="GateWay" style="whiteSpace=wrap;html=1;rounded=1;" vertex="1" parent="1">
          <mxGeometry x="435" y="830" width="120" height="60" as="geometry" />
        </mxCell>
        <mxCell id="DrNX_Tf_RnusZ_OTeK2H-16" value="" style="edgeStyle=orthogonalEdgeStyle;rounded=0;orthogonalLoop=1;jettySize=auto;html=1;" edge="1" parent="1" target="DrNX_Tf_RnusZ_OTeK2H-15">
          <mxGeometry relative="1" as="geometry">
            <mxPoint x="355" y="860" as="sourcePoint" />
          </mxGeometry>
        </mxCell>
        <mxCell id="DrNX_Tf_RnusZ_OTeK2H-17" style="edgeStyle=orthogonalEdgeStyle;rounded=0;orthogonalLoop=1;jettySize=auto;html=1;exitX=0.5;exitY=0.5;exitDx=0;exitDy=0;exitPerimeter=0;entryX=0;entryY=0.5;entryDx=0;entryDy=0;" edge="1" parent="1" source="DrNX_Tf_RnusZ_OTeK2H-18" target="DrNX_Tf_RnusZ_OTeK2H-19">
          <mxGeometry relative="1" as="geometry">
            <mxPoint x="235" y="860" as="targetPoint" />
          </mxGeometry>
        </mxCell>
        <mxCell id="DrNX_Tf_RnusZ_OTeK2H-18" value="Global User" style="shape=umlActor;verticalLabelPosition=bottom;verticalAlign=top;html=1;outlineConnect=0;" vertex="1" parent="1">
          <mxGeometry x="-10" y="830" width="30" height="60" as="geometry" />
        </mxCell>
        <mxCell id="DrNX_Tf_RnusZ_OTeK2H-19" value="NGINX" style="rounded=1;whiteSpace=wrap;html=1;" vertex="1" parent="1">
          <mxGeometry x="265" y="830" width="120" height="60" as="geometry" />
        </mxCell>
        <mxCell id="DrNX_Tf_RnusZ_OTeK2H-25" value="CN" style="text;html=1;strokeColor=none;fillColor=none;align=center;verticalAlign=middle;whiteSpace=wrap;rounded=0;" vertex="1" parent="1">
          <mxGeometry x="583" y="930" width="40" height="20" as="geometry" />
        </mxCell>
        <mxCell id="DrNX_Tf_RnusZ_OTeK2H-26" value="" style="edgeStyle=orthogonalEdgeStyle;rounded=0;orthogonalLoop=1;jettySize=auto;html=1;fontSize=14;" edge="1" parent="1" target="DrNX_Tf_RnusZ_OTeK2H-28">
          <mxGeometry relative="1" as="geometry">
            <mxPoint x="785" y="550" as="sourcePoint" />
          </mxGeometry>
        </mxCell>
        <mxCell id="DrNX_Tf_RnusZ_OTeK2H-28" value="DB" style="shape=cylinder3;whiteSpace=wrap;html=1;boundedLbl=1;backgroundOutline=1;size=15;fontSize=14;" vertex="1" parent="1">
          <mxGeometry x="845" y="510" width="60" height="80" as="geometry" />
        </mxCell>
        <mxCell id="DrNX_Tf_RnusZ_OTeK2H-29" value="" style="edgeStyle=orthogonalEdgeStyle;rounded=0;orthogonalLoop=1;jettySize=auto;html=1;fontSize=14;" edge="1" parent="1" target="DrNX_Tf_RnusZ_OTeK2H-31">
          <mxGeometry relative="1" as="geometry">
            <mxPoint x="784" y="860" as="sourcePoint" />
          </mxGeometry>
        </mxCell>
        <mxCell id="DrNX_Tf_RnusZ_OTeK2H-31" value="DB" style="shape=cylinder3;whiteSpace=wrap;html=1;boundedLbl=1;backgroundOutline=1;size=15;fontSize=14;" vertex="1" parent="1">
          <mxGeometry x="844" y="820" width="60" height="80" as="geometry" />
        </mxCell>
        <mxCell id="DrNX_Tf_RnusZ_OTeK2H-35" value="" style="endArrow=classic;html=1;rounded=0;entryX=0.5;entryY=1;entryDx=0;entryDy=0;exitX=0.5;exitY=0;exitDx=0;exitDy=0;" edge="1" parent="1" source="DrNX_Tf_RnusZ_OTeK2H-19" target="DrNX_Tf_RnusZ_OTeK2H-8">
          <mxGeometry width="50" height="50" relative="1" as="geometry">
            <mxPoint x="300" y="810" as="sourcePoint" />
            <mxPoint x="350" y="760" as="targetPoint" />
          </mxGeometry>
        </mxCell>
        <mxCell id="DrNX_Tf_RnusZ_OTeK2H-36" value="部分 url" style="edgeLabel;html=1;align=center;verticalAlign=middle;resizable=0;points=[];" vertex="1" connectable="0" parent="DrNX_Tf_RnusZ_OTeK2H-35">
          <mxGeometry x="0.1346" y="-2" relative="1" as="geometry">
            <mxPoint y="1" as="offset" />
          </mxGeometry>
        </mxCell>
      </root>
    </mxGraphModel>
  </diagram>
</mxfile>
